<?xml version="1.0" standalone="no"?><!DOCTYPE svg PUBLIC "-//W3C//DTD SVG 1.1//EN" "http://www.w3.org/Graphics/SVG/1.1/DTD/svg11.dtd"><svg class="icon" width="200px" height="200.00px" viewBox="0 0 1024 1024" version="1.1" xmlns="http://www.w3.org/2000/svg"><path fill="#1296db" d="M291.58 249.48h261.37c48.21 0 86.87 12.13 116 36.38 29.12 24.26 43.69 60.91 43.69 109.97 0 29.77-6.66 55.27-19.96 76.48-13.31 21.23-32.27 37.62-56.87 49.2v1.65c33.14 7.73 58.25 24.95 75.32 51.68 17.07 26.74 25.61 60.23 25.61 100.46 0 23.15-3.77 44.79-11.3 64.91-7.53 20.13-19.34 37.49-35.4 52.09-16.08 14.61-36.66 26.19-61.76 34.73-25.12 8.55-54.99 12.82-89.63 12.82H291.58V249.48z m94.15 247.22h153.66c22.6 0 41.43-7.03 56.49-21.08 15.06-14.06 22.6-34.31 22.6-60.77 0-29.77-6.78-50.71-20.34-62.84-13.56-12.12-33.14-18.19-58.75-18.19H385.73V496.7z m0 258.8h166.46c28.62 0 50.84-8.13 66.66-24.39 15.82-16.25 23.73-39.27 23.73-69.04 0-29.21-7.91-51.68-23.73-67.39s-38.04-23.56-66.66-23.56H385.73V755.5z"  /></svg>