<?xml version="1.0" standalone="no"?><!DOCTYPE svg PUBLIC "-//W3C//DTD SVG 1.1//EN" "http://www.w3.org/Graphics/SVG/1.1/DTD/svg11.dtd"><svg class="icon" width="200px" height="200.00px" viewBox="0 0 1024 1024" version="1.1" xmlns="http://www.w3.org/2000/svg"><path fill="#1296db" d="M435.18 676.5l-9.92-9.92c-80.11-80.11-80.11-210.45 0-290.55l45.17-45.17c80.11-80.11 210.45-80.11 290.55 0 38.8 38.81 60.18 90.4 60.18 145.28 0 54.88-21.37 106.47-60.18 145.28l-45.17 45.17-60.52-60.52 45.17-45.17c22.64-22.64 35.11-52.74 35.11-84.76s-12.47-62.12-35.11-84.76c-46.73-46.73-122.78-46.73-169.51 0l-45.17 45.17c-46.73 46.73-46.73 122.78 0 169.51l9.92 9.91-60.52 60.53z"  /><path fill="#1296db" d="M385.3 888.18c-54.88 0-106.47-21.37-145.28-60.18-80.11-80.11-80.11-210.45 0-290.55l45.17-45.17 60.52 60.52-45.17 45.17c-46.73 46.73-46.73 122.78 0 169.51 22.64 22.64 52.74 35.11 84.76 35.11s62.12-12.47 84.76-35.11l45.17-45.17c46.73-46.73 46.73-122.78 0-169.51l-9.77-9.76 60.52-60.52 9.77 9.77c80.11 80.1 80.11 210.45 0 290.55L530.58 828c-38.81 38.81-90.4 60.18-145.28 60.18z"  /></svg>