<?xml version="1.0" standalone="no"?><!DOCTYPE svg PUBLIC "-//W3C//DTD SVG 1.1//EN" "http://www.w3.org/Graphics/SVG/1.1/DTD/svg11.dtd"><svg t="1616479540837" class="icon" viewBox="0 0 1024 1024" version="1.1" xmlns="http://www.w3.org/2000/svg" p-id="1849" xmlns:xlink="http://www.w3.org/1999/xlink" width="200" height="200"><defs><style type="text/css"></style></defs><path d="M736.1 831.6h-448c-17.7 0-32 14.3-32 32s14.3 32 32 32h448c17.7 0 32-14.3 32-32 0-17.6-14.3-32-32-32zM489.5 694.5c12.5 12.5 32.8 12.5 45.3 0l108.9-108.9c12.5-12.5 12.5-32.8 0-45.3s-32.8-12.5-45.3 0L544 594.7V159.9c0-17.7-14.3-32-32-32s-32 14.3-32 32v434.6l-54.2-54.2c-12.5-12.5-32.8-12.5-45.3 0s-12.5 32.8 0 45.3l109 108.9z" p-id="1850"></path></svg>