<?xml version="1.0" standalone="no"?><!DOCTYPE svg PUBLIC "-//W3C//DTD SVG 1.1//EN" "http://www.w3.org/Graphics/SVG/1.1/DTD/svg11.dtd"><svg class="icon" width="200px" height="200.00px" viewBox="0 0 1024 1024" version="1.1" xmlns="http://www.w3.org/2000/svg"><path fill="#2c2c2c" d="M235.54 255.8c5.7 0 11.25-0.48 16.64-1.43 5.39-0.95 10.26-2.53 14.62-4.75 4.36-2.22 8.08-5.07 11.17-8.56 3.09-3.48 5.11-7.76 6.06-12.84h22.11v166.39h-29.71V277.19h-40.88V255.8zM345.84 624.84H232.22c0.16-13.79 3.48-25.83 9.98-36.13 6.5-10.3 15.37-19.25 26.62-26.86 5.39-3.96 11.01-7.8 16.88-11.53 5.86-3.72 11.25-7.72 16.16-12s8.95-8.91 12.12-13.9 4.83-10.73 4.99-17.23c0-3.01-0.36-6.22-1.07-9.63-0.71-3.41-2.1-6.57-4.16-9.51-2.06-2.93-4.91-5.39-8.56-7.37-3.65-1.98-8.4-2.97-14.26-2.97-5.39 0-9.86 1.07-13.43 3.21-3.56 2.14-6.42 5.07-8.56 8.8-2.14 3.72-3.73 8.12-4.75 13.19-1.03 5.07-1.63 10.54-1.78 16.4h-27.1c0-9.19 1.23-17.71 3.68-25.55s6.14-14.62 11.05-20.32c4.91-5.71 10.89-10.18 17.95-13.43 7.05-3.25 15.25-4.87 24.6-4.87 10.14 0 18.62 1.66 25.43 4.99 6.81 3.33 12.32 7.53 16.52 12.6 4.2 5.07 7.17 10.58 8.91 16.52 1.74 5.94 2.61 11.61 2.61 16.99 0 6.66-1.03 12.68-3.09 18.07a58.412 58.412 0 0 1-8.32 14.86 84.278 84.278 0 0 1-11.88 12.48c-4.44 3.8-9.03 7.37-13.79 10.7-4.75 3.33-9.51 6.5-14.26 9.51s-9.15 6.02-13.19 9.03c-4.04 3.01-7.57 6.14-10.58 9.39-3.01 3.25-5.07 6.7-6.18 10.34h81.05v24.22zM277.14 748.61c4.43 0.16 8.87-0.16 13.31-0.95 4.44-0.79 8.4-2.18 11.89-4.16 3.48-1.98 6.3-4.71 8.44-8.2 2.14-3.48 3.21-7.76 3.21-12.84 0-7.13-2.42-12.84-7.25-17.11-4.84-4.28-11.05-6.42-18.66-6.42-4.75 0-8.88 0.95-12.36 2.85-3.49 1.9-6.38 4.48-8.68 7.72-2.3 3.25-4 6.89-5.11 10.93-1.11 4.04-1.59 8.2-1.43 12.48h-27.1c0.32-8.08 1.82-15.57 4.52-22.46 2.69-6.89 6.38-12.87 11.05-17.95 4.67-5.07 10.34-9.03 16.99-11.88 6.66-2.85 14.18-4.28 22.58-4.28 6.5 0 12.87 0.95 19.13 2.85 6.26 1.9 11.88 4.68 16.88 8.32 4.99 3.65 8.99 8.28 12 13.9 3.01 5.63 4.52 12.09 4.52 19.37 0 8.4-1.9 15.73-5.71 21.99-3.8 6.26-9.75 10.82-17.83 13.67v0.48c9.51 1.9 16.91 6.62 22.23 14.14 5.31 7.53 7.96 16.68 7.96 27.45 0 7.93-1.59 15.02-4.75 21.27-3.17 6.26-7.45 11.57-12.84 15.93-5.39 4.36-11.65 7.73-18.78 10.1s-14.66 3.57-22.58 3.57c-9.67 0-18.11-1.39-25.31-4.16-7.21-2.77-13.23-6.69-18.07-11.77-4.84-5.07-8.52-11.17-11.05-18.3-2.54-7.13-3.88-15.05-4.04-23.77h27.1c-0.32 10.14 2.18 18.58 7.49 25.31 5.31 6.74 13.27 10.1 23.89 10.1 9.03 0 16.6-2.57 22.7-7.73 6.1-5.15 9.15-12.48 9.15-21.99 0-6.5-1.27-11.65-3.8-15.45-2.54-3.8-5.86-6.69-9.98-8.68-4.12-1.98-8.76-3.21-13.91-3.68-5.15-0.48-10.42-0.63-15.81-0.48v-20.17zM393.55 260.89h410.22v100.19H393.55zM393.55 500.89h410.22v100.19H393.55zM393.55 719.49h410.22v100.19H393.55z"  /></svg>